<?xml version="1.0" standalone="no"?>
<!DOCTYPE svg PUBLIC "-//W3C//DTD SVG 20010904//EN"
 "http://www.w3.org/TR/2001/REC-SVG-20010904/DTD/svg10.dtd">
<svg version="1.0" xmlns="http://www.w3.org/2000/svg"
 width="133.000000pt" height="133.000000pt" viewBox="0 0 133.000000 133.000000"
 preserveAspectRatio="xMidYMid meet">
<metadata>
Created by potrace 1.11, written by Peter Selinger 2001-2013
</metadata>
<g transform="translate(0.000000,133.000000) scale(0.100000,-0.100000)"
fill="#000000" stroke="none">
<path d="M1097 1157 c-8 -7 -65 -167 -127 -357 -62 -190 -116 -349 -121 -355
-20 -21 -39 29 -94 255 -32 129 -64 248 -72 263 -33 67 -155 69 -197 4 -12
-17 -88 -329 -112 -454 -13 -68 -43 -94 -62 -55 -5 9 -31 88 -58 175 l-49 157
-40 1 c-77 3 -149 -1 -156 -9 -3 -4 18 -81 48 -172 30 -91 55 -169 57 -175 38
-140 71 -203 120 -228 50 -26 141 -27 182 -1 65 41 77 69 133 290 44 171 35
175 92 -46 52 -202 88 -252 191 -264 40 -5 117 37 150 80 19 25 68 160 157
433 151 461 147 446 129 457 -21 13 -155 13 -171 1z"/>
<path d="M1175 421 c-87 -27 -117 -140 -54 -207 92 -98 248 18 189 141 -28 57
-81 83 -135 66z"/>
</g>
</svg>
