<?xml version="1.0" encoding="UTF-8"?>
<svg xmlns="http://www.w3.org/2000/svg" xmlns:xlink="http://www.w3.org/1999/xlink" viewBox="0 0 22 19.42">
  <defs>
    <style>.cls-1,.cls-5{fill:none;}.cls-2{clip-path:url(#clip-path);}.cls-3{clip-path:url(#clip-path-2);}.cls-4{fill:#a4a5ad;}.cls-5{stroke:#a4a5ad;stroke-miterlimit:10;stroke-width:2px;}.cls-6{clip-path:url(#clip-path-5);}.cls-7{clip-path:url(#clip-path-9);}</style>
    <clipPath id="clip-path" transform="translate(-729 -1728.3)">
      <rect class="cls-1" x="730" y="1734" width="20" height="1.5" />
    </clipPath>
    <clipPath id="clip-path-2" transform="translate(-729 -1728.3)">
      <rect class="cls-1" width="1541" height="2877" />
    </clipPath>
    <clipPath id="clip-path-5" transform="translate(-729 -1728.3)">
      <rect class="cls-1" x="730" y="1737.25" width="20" height="1.5" />
    </clipPath>
    <clipPath id="clip-path-9" transform="translate(-729 -1728.3)">
      <rect class="cls-1" x="730" y="1740.5" width="20" height="1.5" />
    </clipPath>
  </defs>
  <title>Asset 1</title>
  <g id="Layer_2" data-name="Layer 2">
    <g id="Layer_1-2" data-name="Layer 1">
      <g class="cls-2">
        <g class="cls-3">
          <rect class="cls-4" x="1" y="5.7" width="20" height="1.5" />
        </g>
      </g>
      <g class="cls-2">
        <g class="cls-3">
          <rect class="cls-5" x="1" y="5.7" width="20" height="1.5" />
        </g>
      </g>
      <g class="cls-6">
        <g class="cls-3">
          <rect class="cls-4" x="1" y="8.95" width="20" height="1.5" />
        </g>
      </g>
      <g class="cls-6">
        <g class="cls-3">
          <rect class="cls-5" x="1" y="8.95" width="20" height="1.5" />
        </g>
      </g>
      <g class="cls-7">
        <g class="cls-3">
          <rect class="cls-4" x="1" y="12.2" width="20" height="1.5" />
        </g>
      </g>
      <g class="cls-7">
        <g class="cls-3">
          <rect class="cls-5" x="1" y="12.2" width="20" height="1.5" />
        </g>
      </g>
      <polygon class="cls-4" points="7.79 3.19 14.21 3.19 11.02 0 7.79 3.19" />
      <polygon class="cls-4" points="14.21 16.23 7.79 16.23 10.98 19.42 14.21 16.23" />
    </g>
  </g>
</svg>
